<svg width="713" height="347" viewBox="0 0 713 347" fill="none" xmlns="http://www.w3.org/2000/svg">
<path d="M3.13636 6.27108C4.86853 6.27108 6.27273 4.86725 6.27273 3.13554C6.27273 1.40383 4.86853 0 3.13636 0C1.4042 0 0 1.40383 0 3.13554C0 4.86725 1.4042 6.27108 3.13636 6.27108Z" fill="#290272" fill-opacity="0.2"/>
<path d="M40.7727 5.74849C42.2162 5.74849 43.3863 4.57863 43.3863 3.13553C43.3863 1.69244 42.2162 0.522583 40.7727 0.522583C39.3292 0.522583 38.1591 1.69244 38.1591 3.13553C38.1591 4.57863 39.3292 5.74849 40.7727 5.74849Z" stroke="#290272" stroke-opacity="0.4"/>
<path d="M76.3182 6.27108C78.0504 6.27108 79.4546 4.86725 79.4546 3.13554C79.4546 1.40383 78.0504 0 76.3182 0C74.5861 0 73.1819 1.40383 73.1819 3.13554C73.1819 4.86725 74.5861 6.27108 76.3182 6.27108Z" fill="#290272" fill-opacity="0.2"/>
<path d="M113.955 5.74849C115.398 5.74849 116.568 4.57863 116.568 3.13553C116.568 1.69244 115.398 0.522583 113.955 0.522583C112.511 0.522583 111.341 1.69244 111.341 3.13553C111.341 4.57863 112.511 5.74849 113.955 5.74849Z" stroke="#290272" stroke-opacity="0.4"/>
<path d="M149.5 6.27108C151.232 6.27108 152.636 4.86725 152.636 3.13554C152.636 1.40383 151.232 0 149.5 0C147.768 0 146.364 1.40383 146.364 3.13554C146.364 4.86725 147.768 6.27108 149.5 6.27108Z" fill="#290272" fill-opacity="0.2"/>
<path d="M187.136 5.74849C188.58 5.74849 189.75 4.57863 189.75 3.13553C189.75 1.69244 188.58 0.522583 187.136 0.522583C185.693 0.522583 184.523 1.69244 184.523 3.13553C184.523 4.57863 185.693 5.74849 187.136 5.74849Z" stroke="#290272" stroke-opacity="0.4"/>
<path d="M222.682 6.27108C224.414 6.27108 225.818 4.86725 225.818 3.13554C225.818 1.40383 224.414 0 222.682 0C220.95 0 219.545 1.40383 219.545 3.13554C219.545 4.86725 220.95 6.27108 222.682 6.27108Z" fill="#290272" fill-opacity="0.2"/>
<path d="M260.318 5.74849C261.762 5.74849 262.932 4.57863 262.932 3.13553C262.932 1.69244 261.762 0.522583 260.318 0.522583C258.875 0.522583 257.704 1.69244 257.704 3.13553C257.704 4.57863 258.875 5.74849 260.318 5.74849Z" stroke="#290272" stroke-opacity="0.4"/>
<path d="M295.864 6.27108C297.596 6.27108 299 4.86725 299 3.13554C299 1.40383 297.596 0 295.864 0C294.131 0 292.727 1.40383 292.727 3.13554C292.727 4.86725 294.131 6.27108 295.864 6.27108Z" fill="#290272" fill-opacity="0.2"/>
<path d="M333.5 5.74849C334.943 5.74849 336.114 4.57863 336.114 3.13553C336.114 1.69244 334.943 0.522583 333.5 0.522583C332.057 0.522583 330.886 1.69244 330.886 3.13553C330.886 4.57863 332.057 5.74849 333.5 5.74849Z" stroke="#290272" stroke-opacity="0.4"/>
<path d="M369.045 6.27108C370.778 6.27108 372.182 4.86725 372.182 3.13554C372.182 1.40383 370.778 0 369.045 0C367.313 0 365.909 1.40383 365.909 3.13554C365.909 4.86725 367.313 6.27108 369.045 6.27108Z" fill="#290272" fill-opacity="0.2"/>
<path d="M406.682 5.74849C408.125 5.74849 409.295 4.57863 409.295 3.13553C409.295 1.69244 408.125 0.522583 406.682 0.522583C405.238 0.522583 404.068 1.69244 404.068 3.13553C404.068 4.57863 405.238 5.74849 406.682 5.74849Z" stroke="#290272" stroke-opacity="0.4"/>
<path d="M442.227 6.27108C443.959 6.27108 445.364 4.86725 445.364 3.13554C445.364 1.40383 443.959 0 442.227 0C440.495 0 439.091 1.40383 439.091 3.13554C439.091 4.86725 440.495 6.27108 442.227 6.27108Z" fill="#290272" fill-opacity="0.2"/>
<path d="M479.864 5.74849C481.307 5.74849 482.477 4.57863 482.477 3.13553C482.477 1.69244 481.307 0.522583 479.864 0.522583C478.42 0.522583 477.25 1.69244 477.25 3.13553C477.25 4.57863 478.42 5.74849 479.864 5.74849Z" stroke="#290272" stroke-opacity="0.4"/>
<path d="M515.409 6.27108C517.141 6.27108 518.545 4.86725 518.545 3.13554C518.545 1.40383 517.141 0 515.409 0C513.677 0 512.273 1.40383 512.273 3.13554C512.273 4.86725 513.677 6.27108 515.409 6.27108Z" fill="#290272" fill-opacity="0.2"/>
<path d="M553.045 5.74849C554.489 5.74849 555.659 4.57863 555.659 3.13553C555.659 1.69244 554.489 0.522583 553.045 0.522583C551.602 0.522583 550.432 1.69244 550.432 3.13553C550.432 4.57863 551.602 5.74849 553.045 5.74849Z" stroke="#290272" stroke-opacity="0.4"/>
<path d="M588.591 6.27108C590.323 6.27108 591.727 4.86725 591.727 3.13554C591.727 1.40383 590.323 0 588.591 0C586.859 0 585.455 1.40383 585.455 3.13554C585.455 4.86725 586.859 6.27108 588.591 6.27108Z" fill="#290272" fill-opacity="0.2"/>
<path d="M626.227 5.74849C627.671 5.74849 628.841 4.57863 628.841 3.13553C628.841 1.69244 627.671 0.522583 626.227 0.522583C624.784 0.522583 623.614 1.69244 623.614 3.13553C623.614 4.57863 624.784 5.74849 626.227 5.74849Z" stroke="#290272" stroke-opacity="0.4"/>
<path d="M661.773 6.27108C663.505 6.27108 664.909 4.86725 664.909 3.13554C664.909 1.40383 663.505 0 661.773 0C660.041 0 658.636 1.40383 658.636 3.13554C658.636 4.86725 660.041 6.27108 661.773 6.27108Z" fill="#290272" fill-opacity="0.2"/>
<path d="M699.409 5.74849C700.853 5.74849 702.023 4.57863 702.023 3.13553C702.023 1.69244 700.853 0.522583 699.409 0.522583C697.966 0.522583 696.795 1.69244 696.795 3.13553C696.795 4.57863 697.966 5.74849 699.409 5.74849Z" stroke="#290272" stroke-opacity="0.4"/>
<path d="M3.13636 54.3495C4.86853 54.3495 6.27273 52.9456 6.27273 51.2139C6.27273 49.4822 4.86853 48.0784 3.13636 48.0784C1.4042 48.0784 0 49.4822 0 51.2139C0 52.9456 1.4042 54.3495 3.13636 54.3495Z" fill="#290272" fill-opacity="0.2"/>
<path d="M40.7727 53.8269C42.2162 53.8269 43.3863 52.657 43.3863 51.2139C43.3863 49.7708 42.2162 48.601 40.7727 48.601C39.3292 48.601 38.1591 49.7708 38.1591 51.2139C38.1591 52.657 39.3292 53.8269 40.7727 53.8269Z" stroke="#290272" stroke-opacity="0.4"/>
<path d="M76.3182 54.3495C78.0504 54.3495 79.4546 52.9456 79.4546 51.2139C79.4546 49.4822 78.0504 48.0784 76.3182 48.0784C74.5861 48.0784 73.1819 49.4822 73.1819 51.2139C73.1819 52.9456 74.5861 54.3495 76.3182 54.3495Z" fill="#290272" fill-opacity="0.2"/>
<path d="M113.955 53.8269C115.398 53.8269 116.568 52.657 116.568 51.2139C116.568 49.7708 115.398 48.601 113.955 48.601C112.511 48.601 111.341 49.7708 111.341 51.2139C111.341 52.657 112.511 53.8269 113.955 53.8269Z" stroke="#290272" stroke-opacity="0.4"/>
<path d="M149.5 54.3495C151.232 54.3495 152.636 52.9456 152.636 51.2139C152.636 49.4822 151.232 48.0784 149.5 48.0784C147.768 48.0784 146.364 49.4822 146.364 51.2139C146.364 52.9456 147.768 54.3495 149.5 54.3495Z" fill="#290272" fill-opacity="0.2"/>
<path d="M187.136 53.8269C188.58 53.8269 189.75 52.657 189.75 51.2139C189.75 49.7708 188.58 48.601 187.136 48.601C185.693 48.601 184.523 49.7708 184.523 51.2139C184.523 52.657 185.693 53.8269 187.136 53.8269Z" stroke="#290272" stroke-opacity="0.4"/>
<path d="M222.682 54.3495C224.414 54.3495 225.818 52.9456 225.818 51.2139C225.818 49.4822 224.414 48.0784 222.682 48.0784C220.95 48.0784 219.545 49.4822 219.545 51.2139C219.545 52.9456 220.95 54.3495 222.682 54.3495Z" fill="#290272" fill-opacity="0.2"/>
<path d="M260.318 53.8269C261.762 53.8269 262.932 52.657 262.932 51.2139C262.932 49.7708 261.762 48.601 260.318 48.601C258.875 48.601 257.704 49.7708 257.704 51.2139C257.704 52.657 258.875 53.8269 260.318 53.8269Z" stroke="#290272" stroke-opacity="0.4"/>
<path d="M295.864 54.3495C297.596 54.3495 299 52.9456 299 51.2139C299 49.4822 297.596 48.0784 295.864 48.0784C294.131 48.0784 292.727 49.4822 292.727 51.2139C292.727 52.9456 294.131 54.3495 295.864 54.3495Z" fill="#290272" fill-opacity="0.2"/>
<path d="M333.5 53.8269C334.943 53.8269 336.114 52.657 336.114 51.2139C336.114 49.7708 334.943 48.601 333.5 48.601C332.057 48.601 330.886 49.7708 330.886 51.2139C330.886 52.657 332.057 53.8269 333.5 53.8269Z" stroke="#290272" stroke-opacity="0.4"/>
<path d="M369.045 54.3495C370.778 54.3495 372.182 52.9456 372.182 51.2139C372.182 49.4822 370.778 48.0784 369.045 48.0784C367.313 48.0784 365.909 49.4822 365.909 51.2139C365.909 52.9456 367.313 54.3495 369.045 54.3495Z" fill="#290272" fill-opacity="0.2"/>
<path d="M406.682 53.8269C408.125 53.8269 409.295 52.657 409.295 51.2139C409.295 49.7708 408.125 48.601 406.682 48.601C405.238 48.601 404.068 49.7708 404.068 51.2139C404.068 52.657 405.238 53.8269 406.682 53.8269Z" stroke="#290272" stroke-opacity="0.4"/>
<path d="M442.227 54.3495C443.959 54.3495 445.364 52.9456 445.364 51.2139C445.364 49.4822 443.959 48.0784 442.227 48.0784C440.495 48.0784 439.091 49.4822 439.091 51.2139C439.091 52.9456 440.495 54.3495 442.227 54.3495Z" fill="#290272" fill-opacity="0.2"/>
<path d="M479.864 53.8269C481.307 53.8269 482.477 52.657 482.477 51.2139C482.477 49.7708 481.307 48.601 479.864 48.601C478.42 48.601 477.25 49.7708 477.25 51.2139C477.25 52.657 478.42 53.8269 479.864 53.8269Z" stroke="#290272" stroke-opacity="0.4"/>
<path d="M515.409 54.3495C517.141 54.3495 518.545 52.9456 518.545 51.2139C518.545 49.4822 517.141 48.0784 515.409 48.0784C513.677 48.0784 512.273 49.4822 512.273 51.2139C512.273 52.9456 513.677 54.3495 515.409 54.3495Z" fill="#290272" fill-opacity="0.2"/>
<path d="M553.045 53.8269C554.489 53.8269 555.659 52.657 555.659 51.2139C555.659 49.7708 554.489 48.601 553.045 48.601C551.602 48.601 550.432 49.7708 550.432 51.2139C550.432 52.657 551.602 53.8269 553.045 53.8269Z" stroke="#290272" stroke-opacity="0.4"/>
<path d="M588.591 54.3495C590.323 54.3495 591.727 52.9456 591.727 51.2139C591.727 49.4822 590.323 48.0784 588.591 48.0784C586.859 48.0784 585.455 49.4822 585.455 51.2139C585.455 52.9456 586.859 54.3495 588.591 54.3495Z" fill="#290272" fill-opacity="0.2"/>
<path d="M626.227 53.8269C627.671 53.8269 628.841 52.657 628.841 51.2139C628.841 49.7708 627.671 48.601 626.227 48.601C624.784 48.601 623.614 49.7708 623.614 51.2139C623.614 52.657 624.784 53.8269 626.227 53.8269Z" stroke="#290272" stroke-opacity="0.4"/>
<path d="M661.773 54.3495C663.505 54.3495 664.909 52.9456 664.909 51.2139C664.909 49.4822 663.505 48.0784 661.773 48.0784C660.041 48.0784 658.636 49.4822 658.636 51.2139C658.636 52.9456 660.041 54.3495 661.773 54.3495Z" fill="#290272" fill-opacity="0.2"/>
<path d="M699.409 53.8269C700.853 53.8269 702.023 52.657 702.023 51.2139C702.023 49.7708 700.853 48.601 699.409 48.601C697.966 48.601 696.795 49.7708 696.795 51.2139C696.795 52.657 697.966 53.8269 699.409 53.8269Z" stroke="#290272" stroke-opacity="0.4"/>
<path d="M3.13636 102.428C4.86853 102.428 6.27273 101.024 6.27273 99.2922C6.27273 97.5604 4.86853 96.1566 3.13636 96.1566C1.4042 96.1566 0 97.5604 0 99.2922C0 101.024 1.4042 102.428 3.13636 102.428Z" fill="#290272" fill-opacity="0.2"/>
<path d="M40.7727 101.905C42.2162 101.905 43.3863 100.735 43.3863 99.2922C43.3863 97.8491 42.2162 96.6792 40.7727 96.6792C39.3292 96.6792 38.1591 97.8491 38.1591 99.2922C38.1591 100.735 39.3292 101.905 40.7727 101.905Z" stroke="#290272" stroke-opacity="0.4"/>
<path d="M76.3182 102.428C78.0504 102.428 79.4546 101.024 79.4546 99.2922C79.4546 97.5604 78.0504 96.1566 76.3182 96.1566C74.5861 96.1566 73.1819 97.5604 73.1819 99.2922C73.1819 101.024 74.5861 102.428 76.3182 102.428Z" fill="#290272" fill-opacity="0.2"/>
<path d="M113.955 101.905C115.398 101.905 116.568 100.735 116.568 99.2922C116.568 97.8491 115.398 96.6792 113.955 96.6792C112.511 96.6792 111.341 97.8491 111.341 99.2922C111.341 100.735 112.511 101.905 113.955 101.905Z" stroke="#290272" stroke-opacity="0.4"/>
<path d="M149.5 102.428C151.232 102.428 152.636 101.024 152.636 99.2922C152.636 97.5604 151.232 96.1566 149.5 96.1566C147.768 96.1566 146.364 97.5604 146.364 99.2922C146.364 101.024 147.768 102.428 149.5 102.428Z" fill="#290272" fill-opacity="0.2"/>
<path d="M187.136 101.905C188.58 101.905 189.75 100.735 189.75 99.2922C189.75 97.8491 188.58 96.6792 187.136 96.6792C185.693 96.6792 184.523 97.8491 184.523 99.2922C184.523 100.735 185.693 101.905 187.136 101.905Z" stroke="#290272" stroke-opacity="0.4"/>
<path d="M222.682 102.428C224.414 102.428 225.818 101.024 225.818 99.2922C225.818 97.5604 224.414 96.1566 222.682 96.1566C220.95 96.1566 219.545 97.5604 219.545 99.2922C219.545 101.024 220.95 102.428 222.682 102.428Z" fill="#290272" fill-opacity="0.2"/>
<path d="M260.318 101.905C261.762 101.905 262.932 100.735 262.932 99.2922C262.932 97.8491 261.762 96.6792 260.318 96.6792C258.875 96.6792 257.704 97.8491 257.704 99.2922C257.704 100.735 258.875 101.905 260.318 101.905Z" stroke="#290272" stroke-opacity="0.4"/>
<path d="M295.864 102.428C297.596 102.428 299 101.024 299 99.2922C299 97.5604 297.596 96.1566 295.864 96.1566C294.131 96.1566 292.727 97.5604 292.727 99.2922C292.727 101.024 294.131 102.428 295.864 102.428Z" fill="#290272" fill-opacity="0.2"/>
<path d="M333.5 101.905C334.943 101.905 336.114 100.735 336.114 99.2922C336.114 97.8491 334.943 96.6792 333.5 96.6792C332.057 96.6792 330.886 97.8491 330.886 99.2922C330.886 100.735 332.057 101.905 333.5 101.905Z" stroke="#290272" stroke-opacity="0.4"/>
<path d="M369.045 102.428C370.778 102.428 372.182 101.024 372.182 99.2922C372.182 97.5604 370.778 96.1566 369.045 96.1566C367.313 96.1566 365.909 97.5604 365.909 99.2922C365.909 101.024 367.313 102.428 369.045 102.428Z" fill="#290272" fill-opacity="0.2"/>
<path d="M406.682 101.905C408.125 101.905 409.295 100.735 409.295 99.2922C409.295 97.8491 408.125 96.6792 406.682 96.6792C405.238 96.6792 404.068 97.8491 404.068 99.2922C404.068 100.735 405.238 101.905 406.682 101.905Z" stroke="#290272" stroke-opacity="0.4"/>
<path d="M442.227 102.428C443.959 102.428 445.364 101.024 445.364 99.2922C445.364 97.5604 443.959 96.1566 442.227 96.1566C440.495 96.1566 439.091 97.5604 439.091 99.2922C439.091 101.024 440.495 102.428 442.227 102.428Z" fill="#290272" fill-opacity="0.2"/>
<path d="M479.864 101.905C481.307 101.905 482.477 100.735 482.477 99.2922C482.477 97.8491 481.307 96.6792 479.864 96.6792C478.42 96.6792 477.25 97.8491 477.25 99.2922C477.25 100.735 478.42 101.905 479.864 101.905Z" stroke="#290272" stroke-opacity="0.4"/>
<path d="M515.409 102.428C517.141 102.428 518.545 101.024 518.545 99.2922C518.545 97.5604 517.141 96.1566 515.409 96.1566C513.677 96.1566 512.273 97.5604 512.273 99.2922C512.273 101.024 513.677 102.428 515.409 102.428Z" fill="#290272" fill-opacity="0.2"/>
<path d="M553.045 101.905C554.489 101.905 555.659 100.735 555.659 99.2922C555.659 97.8491 554.489 96.6792 553.045 96.6792C551.602 96.6792 550.432 97.8491 550.432 99.2922C550.432 100.735 551.602 101.905 553.045 101.905Z" stroke="#290272" stroke-opacity="0.4"/>
<path d="M588.591 102.428C590.323 102.428 591.727 101.024 591.727 99.2922C591.727 97.5604 590.323 96.1566 588.591 96.1566C586.859 96.1566 585.455 97.5604 585.455 99.2922C585.455 101.024 586.859 102.428 588.591 102.428Z" fill="#290272" fill-opacity="0.2"/>
<path d="M626.227 101.905C627.671 101.905 628.841 100.735 628.841 99.2922C628.841 97.8491 627.671 96.6792 626.227 96.6792C624.784 96.6792 623.614 97.8491 623.614 99.2922C623.614 100.735 624.784 101.905 626.227 101.905Z" stroke="#290272" stroke-opacity="0.4"/>
<path d="M661.773 102.428C663.505 102.428 664.909 101.024 664.909 99.2922C664.909 97.5604 663.505 96.1566 661.773 96.1566C660.041 96.1566 658.636 97.5604 658.636 99.2922C658.636 101.024 660.041 102.428 661.773 102.428Z" fill="#290272" fill-opacity="0.2"/>
<path d="M699.409 101.905C700.853 101.905 702.023 100.735 702.023 99.2922C702.023 97.8491 700.853 96.6792 699.409 96.6792C697.966 96.6792 696.795 97.8491 696.795 99.2922C696.795 100.735 697.966 101.905 699.409 101.905Z" stroke="#290272" stroke-opacity="0.4"/>
<path d="M3.13636 150.506C4.86853 150.506 6.27273 149.102 6.27273 147.37C6.27273 145.639 4.86853 144.235 3.13636 144.235C1.4042 144.235 0 145.639 0 147.37C0 149.102 1.4042 150.506 3.13636 150.506Z" fill="#290272" fill-opacity="0.2"/>
<path d="M40.7727 149.983C42.2162 149.983 43.3863 148.814 43.3863 147.37C43.3863 145.927 42.2162 144.758 40.7727 144.758C39.3292 144.758 38.1591 145.927 38.1591 147.37C38.1591 148.814 39.3292 149.983 40.7727 149.983Z" stroke="#290272" stroke-opacity="0.4"/>
<path d="M76.3182 150.506C78.0504 150.506 79.4546 149.102 79.4546 147.37C79.4546 145.639 78.0504 144.235 76.3182 144.235C74.5861 144.235 73.1819 145.639 73.1819 147.37C73.1819 149.102 74.5861 150.506 76.3182 150.506Z" fill="#290272" fill-opacity="0.2"/>
<path d="M113.955 149.983C115.398 149.983 116.568 148.814 116.568 147.37C116.568 145.927 115.398 144.758 113.955 144.758C112.511 144.758 111.341 145.927 111.341 147.37C111.341 148.814 112.511 149.983 113.955 149.983Z" stroke="#290272" stroke-opacity="0.4"/>
<path d="M149.5 150.506C151.232 150.506 152.636 149.102 152.636 147.37C152.636 145.639 151.232 144.235 149.5 144.235C147.768 144.235 146.364 145.639 146.364 147.37C146.364 149.102 147.768 150.506 149.5 150.506Z" fill="#290272" fill-opacity="0.2"/>
<path d="M187.136 149.983C188.58 149.983 189.75 148.814 189.75 147.37C189.75 145.927 188.58 144.758 187.136 144.758C185.693 144.758 184.523 145.927 184.523 147.37C184.523 148.814 185.693 149.983 187.136 149.983Z" stroke="#290272" stroke-opacity="0.4"/>
<path d="M222.682 150.506C224.414 150.506 225.818 149.102 225.818 147.37C225.818 145.639 224.414 144.235 222.682 144.235C220.95 144.235 219.545 145.639 219.545 147.37C219.545 149.102 220.95 150.506 222.682 150.506Z" fill="#290272" fill-opacity="0.2"/>
<path d="M260.318 149.983C261.762 149.983 262.932 148.814 262.932 147.37C262.932 145.927 261.762 144.758 260.318 144.758C258.875 144.758 257.704 145.927 257.704 147.37C257.704 148.814 258.875 149.983 260.318 149.983Z" stroke="#290272" stroke-opacity="0.4"/>
<path d="M295.864 150.506C297.596 150.506 299 149.102 299 147.37C299 145.639 297.596 144.235 295.864 144.235C294.131 144.235 292.727 145.639 292.727 147.37C292.727 149.102 294.131 150.506 295.864 150.506Z" fill="#290272" fill-opacity="0.2"/>
<path d="M333.5 149.983C334.943 149.983 336.114 148.814 336.114 147.37C336.114 145.927 334.943 144.758 333.5 144.758C332.057 144.758 330.886 145.927 330.886 147.37C330.886 148.814 332.057 149.983 333.5 149.983Z" stroke="#290272" stroke-opacity="0.4"/>
<path d="M369.045 150.506C370.778 150.506 372.182 149.102 372.182 147.37C372.182 145.639 370.778 144.235 369.045 144.235C367.313 144.235 365.909 145.639 365.909 147.37C365.909 149.102 367.313 150.506 369.045 150.506Z" fill="#290272" fill-opacity="0.2"/>
<path d="M406.682 149.983C408.125 149.983 409.295 148.814 409.295 147.37C409.295 145.927 408.125 144.758 406.682 144.758C405.238 144.758 404.068 145.927 404.068 147.37C404.068 148.814 405.238 149.983 406.682 149.983Z" stroke="#290272" stroke-opacity="0.4"/>
<path d="M442.227 150.506C443.959 150.506 445.364 149.102 445.364 147.37C445.364 145.639 443.959 144.235 442.227 144.235C440.495 144.235 439.091 145.639 439.091 147.37C439.091 149.102 440.495 150.506 442.227 150.506Z" fill="#290272" fill-opacity="0.2"/>
<path d="M479.864 149.983C481.307 149.983 482.477 148.814 482.477 147.37C482.477 145.927 481.307 144.758 479.864 144.758C478.42 144.758 477.25 145.927 477.25 147.37C477.25 148.814 478.42 149.983 479.864 149.983Z" stroke="#290272" stroke-opacity="0.4"/>
<path d="M515.409 150.506C517.141 150.506 518.545 149.102 518.545 147.37C518.545 145.639 517.141 144.235 515.409 144.235C513.677 144.235 512.273 145.639 512.273 147.37C512.273 149.102 513.677 150.506 515.409 150.506Z" fill="#290272" fill-opacity="0.2"/>
<path d="M553.045 149.983C554.489 149.983 555.659 148.814 555.659 147.37C555.659 145.927 554.489 144.758 553.045 144.758C551.602 144.758 550.432 145.927 550.432 147.37C550.432 148.814 551.602 149.983 553.045 149.983Z" stroke="#290272" stroke-opacity="0.4"/>
<path d="M588.591 150.506C590.323 150.506 591.727 149.102 591.727 147.37C591.727 145.639 590.323 144.235 588.591 144.235C586.859 144.235 585.455 145.639 585.455 147.37C585.455 149.102 586.859 150.506 588.591 150.506Z" fill="#290272" fill-opacity="0.2"/>
<path d="M626.227 149.983C627.671 149.983 628.841 148.814 628.841 147.37C628.841 145.927 627.671 144.758 626.227 144.758C624.784 144.758 623.614 145.927 623.614 147.37C623.614 148.814 624.784 149.983 626.227 149.983Z" stroke="#290272" stroke-opacity="0.4"/>
<path d="M661.773 150.506C663.505 150.506 664.909 149.102 664.909 147.37C664.909 145.639 663.505 144.235 661.773 144.235C660.041 144.235 658.636 145.639 658.636 147.37C658.636 149.102 660.041 150.506 661.773 150.506Z" fill="#290272" fill-opacity="0.2"/>
<path d="M699.409 149.983C700.853 149.983 702.023 148.814 702.023 147.37C702.023 145.927 700.853 144.758 699.409 144.758C697.966 144.758 696.795 145.927 696.795 147.37C696.795 148.814 697.966 149.983 699.409 149.983Z" stroke="#290272" stroke-opacity="0.4"/>
<path d="M3.13636 198.584C4.86853 198.584 6.27273 197.18 6.27273 195.449C6.27273 193.717 4.86853 192.313 3.13636 192.313C1.4042 192.313 0 193.717 0 195.449C0 197.18 1.4042 198.584 3.13636 198.584Z" fill="#290272" fill-opacity="0.2"/>
<path d="M40.7727 198.062C42.2162 198.062 43.3863 196.892 43.3863 195.449C43.3863 194.006 42.2162 192.836 40.7727 192.836C39.3292 192.836 38.1591 194.006 38.1591 195.449C38.1591 196.892 39.3292 198.062 40.7727 198.062Z" stroke="#290272" stroke-opacity="0.4"/>
<path d="M76.3182 198.584C78.0504 198.584 79.4546 197.18 79.4546 195.449C79.4546 193.717 78.0504 192.313 76.3182 192.313C74.5861 192.313 73.1819 193.717 73.1819 195.449C73.1819 197.18 74.5861 198.584 76.3182 198.584Z" fill="#290272" fill-opacity="0.2"/>
<path d="M113.955 198.062C115.398 198.062 116.568 196.892 116.568 195.449C116.568 194.006 115.398 192.836 113.955 192.836C112.511 192.836 111.341 194.006 111.341 195.449C111.341 196.892 112.511 198.062 113.955 198.062Z" stroke="#290272" stroke-opacity="0.4"/>
<path d="M149.5 198.584C151.232 198.584 152.636 197.18 152.636 195.449C152.636 193.717 151.232 192.313 149.5 192.313C147.768 192.313 146.364 193.717 146.364 195.449C146.364 197.18 147.768 198.584 149.5 198.584Z" fill="#290272" fill-opacity="0.2"/>
<path d="M187.136 198.062C188.58 198.062 189.75 196.892 189.75 195.449C189.75 194.006 188.58 192.836 187.136 192.836C185.693 192.836 184.523 194.006 184.523 195.449C184.523 196.892 185.693 198.062 187.136 198.062Z" stroke="#290272" stroke-opacity="0.4"/>
<path d="M222.682 198.584C224.414 198.584 225.818 197.18 225.818 195.449C225.818 193.717 224.414 192.313 222.682 192.313C220.95 192.313 219.545 193.717 219.545 195.449C219.545 197.18 220.95 198.584 222.682 198.584Z" fill="#290272" fill-opacity="0.2"/>
<path d="M260.318 198.062C261.762 198.062 262.932 196.892 262.932 195.449C262.932 194.006 261.762 192.836 260.318 192.836C258.875 192.836 257.704 194.006 257.704 195.449C257.704 196.892 258.875 198.062 260.318 198.062Z" stroke="#290272" stroke-opacity="0.4"/>
<path d="M295.864 198.584C297.596 198.584 299 197.18 299 195.449C299 193.717 297.596 192.313 295.864 192.313C294.131 192.313 292.727 193.717 292.727 195.449C292.727 197.18 294.131 198.584 295.864 198.584Z" fill="#290272" fill-opacity="0.2"/>
<path d="M333.5 198.062C334.943 198.062 336.114 196.892 336.114 195.449C336.114 194.006 334.943 192.836 333.5 192.836C332.057 192.836 330.886 194.006 330.886 195.449C330.886 196.892 332.057 198.062 333.5 198.062Z" stroke="#290272" stroke-opacity="0.4"/>
<path d="M369.045 198.584C370.778 198.584 372.182 197.18 372.182 195.449C372.182 193.717 370.778 192.313 369.045 192.313C367.313 192.313 365.909 193.717 365.909 195.449C365.909 197.18 367.313 198.584 369.045 198.584Z" fill="#290272" fill-opacity="0.2"/>
<path d="M406.682 198.062C408.125 198.062 409.295 196.892 409.295 195.449C409.295 194.006 408.125 192.836 406.682 192.836C405.238 192.836 404.068 194.006 404.068 195.449C404.068 196.892 405.238 198.062 406.682 198.062Z" stroke="#290272" stroke-opacity="0.4"/>
<path d="M442.227 198.584C443.959 198.584 445.364 197.18 445.364 195.449C445.364 193.717 443.959 192.313 442.227 192.313C440.495 192.313 439.091 193.717 439.091 195.449C439.091 197.18 440.495 198.584 442.227 198.584Z" fill="#290272" fill-opacity="0.2"/>
<path d="M479.864 198.062C481.307 198.062 482.477 196.892 482.477 195.449C482.477 194.006 481.307 192.836 479.864 192.836C478.42 192.836 477.25 194.006 477.25 195.449C477.25 196.892 478.42 198.062 479.864 198.062Z" stroke="#290272" stroke-opacity="0.4"/>
<path d="M515.409 198.584C517.141 198.584 518.545 197.18 518.545 195.449C518.545 193.717 517.141 192.313 515.409 192.313C513.677 192.313 512.273 193.717 512.273 195.449C512.273 197.18 513.677 198.584 515.409 198.584Z" fill="#290272" fill-opacity="0.2"/>
<path d="M553.045 198.062C554.489 198.062 555.659 196.892 555.659 195.449C555.659 194.006 554.489 192.836 553.045 192.836C551.602 192.836 550.432 194.006 550.432 195.449C550.432 196.892 551.602 198.062 553.045 198.062Z" stroke="#290272" stroke-opacity="0.4"/>
<path d="M588.591 198.584C590.323 198.584 591.727 197.18 591.727 195.449C591.727 193.717 590.323 192.313 588.591 192.313C586.859 192.313 585.455 193.717 585.455 195.449C585.455 197.18 586.859 198.584 588.591 198.584Z" fill="#290272" fill-opacity="0.2"/>
<path d="M626.227 198.062C627.671 198.062 628.841 196.892 628.841 195.449C628.841 194.006 627.671 192.836 626.227 192.836C624.784 192.836 623.614 194.006 623.614 195.449C623.614 196.892 624.784 198.062 626.227 198.062Z" stroke="#290272" stroke-opacity="0.4"/>
<path d="M661.773 198.584C663.505 198.584 664.909 197.18 664.909 195.449C664.909 193.717 663.505 192.313 661.773 192.313C660.041 192.313 658.636 193.717 658.636 195.449C658.636 197.18 660.041 198.584 661.773 198.584Z" fill="#290272" fill-opacity="0.2"/>
<path d="M699.409 198.062C700.853 198.062 702.023 196.892 702.023 195.449C702.023 194.006 700.853 192.836 699.409 192.836C697.966 192.836 696.795 194.006 696.795 195.449C696.795 196.892 697.966 198.062 699.409 198.062Z" stroke="#290272" stroke-opacity="0.4"/>
<path d="M3.13636 246.663C4.86853 246.663 6.27273 245.259 6.27273 243.527C6.27273 241.795 4.86853 240.392 3.13636 240.392C1.4042 240.392 0 241.795 0 243.527C0 245.259 1.4042 246.663 3.13636 246.663Z" fill="#290272" fill-opacity="0.2"/>
<path d="M40.7727 246.14C42.2162 246.14 43.3863 244.97 43.3863 243.527C43.3863 242.084 42.2162 240.914 40.7727 240.914C39.3292 240.914 38.1591 242.084 38.1591 243.527C38.1591 244.97 39.3292 246.14 40.7727 246.14Z" stroke="#290272" stroke-opacity="0.4"/>
<path d="M76.3182 246.663C78.0504 246.663 79.4546 245.259 79.4546 243.527C79.4546 241.795 78.0504 240.392 76.3182 240.392C74.5861 240.392 73.1819 241.795 73.1819 243.527C73.1819 245.259 74.5861 246.663 76.3182 246.663Z" fill="#290272" fill-opacity="0.2"/>
<path d="M113.955 246.14C115.398 246.14 116.568 244.97 116.568 243.527C116.568 242.084 115.398 240.914 113.955 240.914C112.511 240.914 111.341 242.084 111.341 243.527C111.341 244.97 112.511 246.14 113.955 246.14Z" stroke="#290272" stroke-opacity="0.4"/>
<path d="M149.5 246.663C151.232 246.663 152.636 245.259 152.636 243.527C152.636 241.795 151.232 240.392 149.5 240.392C147.768 240.392 146.364 241.795 146.364 243.527C146.364 245.259 147.768 246.663 149.5 246.663Z" fill="#290272" fill-opacity="0.2"/>
<path d="M187.136 246.14C188.58 246.14 189.75 244.97 189.75 243.527C189.75 242.084 188.58 240.914 187.136 240.914C185.693 240.914 184.523 242.084 184.523 243.527C184.523 244.97 185.693 246.14 187.136 246.14Z" stroke="#290272" stroke-opacity="0.4"/>
<path d="M222.682 246.663C224.414 246.663 225.818 245.259 225.818 243.527C225.818 241.795 224.414 240.392 222.682 240.392C220.95 240.392 219.545 241.795 219.545 243.527C219.545 245.259 220.95 246.663 222.682 246.663Z" fill="#290272" fill-opacity="0.2"/>
<path d="M260.318 246.14C261.762 246.14 262.932 244.97 262.932 243.527C262.932 242.084 261.762 240.914 260.318 240.914C258.875 240.914 257.704 242.084 257.704 243.527C257.704 244.97 258.875 246.14 260.318 246.14Z" stroke="#290272" stroke-opacity="0.4"/>
<path d="M295.864 246.663C297.596 246.663 299 245.259 299 243.527C299 241.795 297.596 240.392 295.864 240.392C294.131 240.392 292.727 241.795 292.727 243.527C292.727 245.259 294.131 246.663 295.864 246.663Z" fill="#290272" fill-opacity="0.2"/>
<path d="M333.5 246.14C334.943 246.14 336.114 244.97 336.114 243.527C336.114 242.084 334.943 240.914 333.5 240.914C332.057 240.914 330.886 242.084 330.886 243.527C330.886 244.97 332.057 246.14 333.5 246.14Z" stroke="#290272" stroke-opacity="0.4"/>
<path d="M369.045 246.663C370.778 246.663 372.182 245.259 372.182 243.527C372.182 241.795 370.778 240.392 369.045 240.392C367.313 240.392 365.909 241.795 365.909 243.527C365.909 245.259 367.313 246.663 369.045 246.663Z" fill="#290272" fill-opacity="0.2"/>
<path d="M406.682 246.14C408.125 246.14 409.295 244.97 409.295 243.527C409.295 242.084 408.125 240.914 406.682 240.914C405.238 240.914 404.068 242.084 404.068 243.527C404.068 244.97 405.238 246.14 406.682 246.14Z" stroke="#290272" stroke-opacity="0.4"/>
<path d="M442.227 246.663C443.959 246.663 445.364 245.259 445.364 243.527C445.364 241.795 443.959 240.392 442.227 240.392C440.495 240.392 439.091 241.795 439.091 243.527C439.091 245.259 440.495 246.663 442.227 246.663Z" fill="#290272" fill-opacity="0.2"/>
<path d="M479.864 246.14C481.307 246.14 482.477 244.97 482.477 243.527C482.477 242.084 481.307 240.914 479.864 240.914C478.42 240.914 477.25 242.084 477.25 243.527C477.25 244.97 478.42 246.14 479.864 246.14Z" stroke="#290272" stroke-opacity="0.4"/>
<path d="M515.409 246.663C517.141 246.663 518.545 245.259 518.545 243.527C518.545 241.795 517.141 240.392 515.409 240.392C513.677 240.392 512.273 241.795 512.273 243.527C512.273 245.259 513.677 246.663 515.409 246.663Z" fill="#290272" fill-opacity="0.2"/>
<path d="M553.045 246.14C554.489 246.14 555.659 244.97 555.659 243.527C555.659 242.084 554.489 240.914 553.045 240.914C551.602 240.914 550.432 242.084 550.432 243.527C550.432 244.97 551.602 246.14 553.045 246.14Z" stroke="#290272" stroke-opacity="0.4"/>
<path d="M588.591 246.663C590.323 246.663 591.727 245.259 591.727 243.527C591.727 241.795 590.323 240.392 588.591 240.392C586.859 240.392 585.455 241.795 585.455 243.527C585.455 245.259 586.859 246.663 588.591 246.663Z" fill="#290272" fill-opacity="0.2"/>
<path d="M626.227 246.14C627.671 246.14 628.841 244.97 628.841 243.527C628.841 242.084 627.671 240.914 626.227 240.914C624.784 240.914 623.614 242.084 623.614 243.527C623.614 244.97 624.784 246.14 626.227 246.14Z" stroke="#290272" stroke-opacity="0.4"/>
<path d="M661.773 246.663C663.505 246.663 664.909 245.259 664.909 243.527C664.909 241.795 663.505 240.392 661.773 240.392C660.041 240.392 658.636 241.795 658.636 243.527C658.636 245.259 660.041 246.663 661.773 246.663Z" fill="#290272" fill-opacity="0.2"/>
<path d="M699.409 246.14C700.853 246.14 702.023 244.97 702.023 243.527C702.023 242.084 700.853 240.914 699.409 240.914C697.966 240.914 696.795 242.084 696.795 243.527C696.795 244.97 697.966 246.14 699.409 246.14Z" stroke="#290272" stroke-opacity="0.4"/>
<path d="M3.13636 294.741C4.86853 294.741 6.27273 293.337 6.27273 291.605C6.27273 289.874 4.86853 288.47 3.13636 288.47C1.4042 288.47 0 289.874 0 291.605C0 293.337 1.4042 294.741 3.13636 294.741Z" fill="#290272" fill-opacity="0.2"/>
<path d="M40.7727 294.218C42.2162 294.218 43.3863 293.048 43.3863 291.605C43.3863 290.162 42.2162 288.992 40.7727 288.992C39.3292 288.992 38.1591 290.162 38.1591 291.605C38.1591 293.048 39.3292 294.218 40.7727 294.218Z" stroke="#290272" stroke-opacity="0.4"/>
<path d="M76.3182 294.741C78.0504 294.741 79.4546 293.337 79.4546 291.605C79.4546 289.874 78.0504 288.47 76.3182 288.47C74.5861 288.47 73.1819 289.874 73.1819 291.605C73.1819 293.337 74.5861 294.741 76.3182 294.741Z" fill="#290272" fill-opacity="0.2"/>
<path d="M113.955 294.218C115.398 294.218 116.568 293.048 116.568 291.605C116.568 290.162 115.398 288.992 113.955 288.992C112.511 288.992 111.341 290.162 111.341 291.605C111.341 293.048 112.511 294.218 113.955 294.218Z" stroke="#290272" stroke-opacity="0.4"/>
<path d="M149.5 294.741C151.232 294.741 152.636 293.337 152.636 291.605C152.636 289.874 151.232 288.47 149.5 288.47C147.768 288.47 146.364 289.874 146.364 291.605C146.364 293.337 147.768 294.741 149.5 294.741Z" fill="#290272" fill-opacity="0.2"/>
<path d="M187.136 294.218C188.58 294.218 189.75 293.048 189.75 291.605C189.75 290.162 188.58 288.992 187.136 288.992C185.693 288.992 184.523 290.162 184.523 291.605C184.523 293.048 185.693 294.218 187.136 294.218Z" stroke="#290272" stroke-opacity="0.4"/>
<path d="M222.682 294.741C224.414 294.741 225.818 293.337 225.818 291.605C225.818 289.874 224.414 288.47 222.682 288.47C220.95 288.47 219.545 289.874 219.545 291.605C219.545 293.337 220.95 294.741 222.682 294.741Z" fill="#290272" fill-opacity="0.2"/>
<path d="M260.318 294.218C261.762 294.218 262.932 293.048 262.932 291.605C262.932 290.162 261.762 288.992 260.318 288.992C258.875 288.992 257.704 290.162 257.704 291.605C257.704 293.048 258.875 294.218 260.318 294.218Z" stroke="#290272" stroke-opacity="0.4"/>
<path d="M295.864 294.741C297.596 294.741 299 293.337 299 291.605C299 289.874 297.596 288.47 295.864 288.47C294.131 288.47 292.727 289.874 292.727 291.605C292.727 293.337 294.131 294.741 295.864 294.741Z" fill="#290272" fill-opacity="0.2"/>
<path d="M333.5 294.218C334.943 294.218 336.114 293.048 336.114 291.605C336.114 290.162 334.943 288.992 333.5 288.992C332.057 288.992 330.886 290.162 330.886 291.605C330.886 293.048 332.057 294.218 333.5 294.218Z" stroke="#290272" stroke-opacity="0.4"/>
<path d="M369.045 294.741C370.778 294.741 372.182 293.337 372.182 291.605C372.182 289.874 370.778 288.47 369.045 288.47C367.313 288.47 365.909 289.874 365.909 291.605C365.909 293.337 367.313 294.741 369.045 294.741Z" fill="#290272" fill-opacity="0.2"/>
<path d="M406.682 294.218C408.125 294.218 409.295 293.048 409.295 291.605C409.295 290.162 408.125 288.992 406.682 288.992C405.238 288.992 404.068 290.162 404.068 291.605C404.068 293.048 405.238 294.218 406.682 294.218Z" stroke="#290272" stroke-opacity="0.4"/>
<path d="M442.227 294.741C443.959 294.741 445.364 293.337 445.364 291.605C445.364 289.874 443.959 288.47 442.227 288.47C440.495 288.47 439.091 289.874 439.091 291.605C439.091 293.337 440.495 294.741 442.227 294.741Z" fill="#290272" fill-opacity="0.2"/>
<path d="M479.864 294.218C481.307 294.218 482.477 293.048 482.477 291.605C482.477 290.162 481.307 288.992 479.864 288.992C478.42 288.992 477.25 290.162 477.25 291.605C477.25 293.048 478.42 294.218 479.864 294.218Z" stroke="#290272" stroke-opacity="0.4"/>
<path d="M515.409 294.741C517.141 294.741 518.545 293.337 518.545 291.605C518.545 289.874 517.141 288.47 515.409 288.47C513.677 288.47 512.273 289.874 512.273 291.605C512.273 293.337 513.677 294.741 515.409 294.741Z" fill="#290272" fill-opacity="0.2"/>
<path d="M553.045 294.218C554.489 294.218 555.659 293.048 555.659 291.605C555.659 290.162 554.489 288.992 553.045 288.992C551.602 288.992 550.432 290.162 550.432 291.605C550.432 293.048 551.602 294.218 553.045 294.218Z" stroke="#290272" stroke-opacity="0.4"/>
<path d="M588.591 294.741C590.323 294.741 591.727 293.337 591.727 291.605C591.727 289.874 590.323 288.47 588.591 288.47C586.859 288.47 585.455 289.874 585.455 291.605C585.455 293.337 586.859 294.741 588.591 294.741Z" fill="#290272" fill-opacity="0.2"/>
<path d="M626.227 294.218C627.671 294.218 628.841 293.048 628.841 291.605C628.841 290.162 627.671 288.992 626.227 288.992C624.784 288.992 623.614 290.162 623.614 291.605C623.614 293.048 624.784 294.218 626.227 294.218Z" stroke="#290272" stroke-opacity="0.4"/>
<path d="M661.773 294.741C663.505 294.741 664.909 293.337 664.909 291.605C664.909 289.874 663.505 288.47 661.773 288.47C660.041 288.47 658.636 289.874 658.636 291.605C658.636 293.337 660.041 294.741 661.773 294.741Z" fill="#290272" fill-opacity="0.2"/>
<path d="M699.409 294.218C700.853 294.218 702.023 293.048 702.023 291.605C702.023 290.162 700.853 288.992 699.409 288.992C697.966 288.992 696.795 290.162 696.795 291.605C696.795 293.048 697.966 294.218 699.409 294.218Z" stroke="#290272" stroke-opacity="0.4"/>
<path d="M3.13636 342.819C4.86853 342.819 6.27273 341.415 6.27273 339.684C6.27273 337.952 4.86853 336.548 3.13636 336.548C1.4042 336.548 0 337.952 0 339.684C0 341.415 1.4042 342.819 3.13636 342.819Z" fill="#290272" fill-opacity="0.2"/>
<path d="M40.7727 342.297C42.2162 342.297 43.3863 341.127 43.3863 339.684C43.3863 338.241 42.2162 337.071 40.7727 337.071C39.3292 337.071 38.1591 338.241 38.1591 339.684C38.1591 341.127 39.3292 342.297 40.7727 342.297Z" stroke="#290272" stroke-opacity="0.4"/>
<path d="M76.3182 342.819C78.0504 342.819 79.4546 341.415 79.4546 339.684C79.4546 337.952 78.0504 336.548 76.3182 336.548C74.5861 336.548 73.1819 337.952 73.1819 339.684C73.1819 341.415 74.5861 342.819 76.3182 342.819Z" fill="#290272" fill-opacity="0.2"/>
<path d="M113.955 342.297C115.398 342.297 116.568 341.127 116.568 339.684C116.568 338.241 115.398 337.071 113.955 337.071C112.511 337.071 111.341 338.241 111.341 339.684C111.341 341.127 112.511 342.297 113.955 342.297Z" stroke="#290272" stroke-opacity="0.4"/>
<path d="M149.5 342.819C151.232 342.819 152.636 341.415 152.636 339.684C152.636 337.952 151.232 336.548 149.5 336.548C147.768 336.548 146.364 337.952 146.364 339.684C146.364 341.415 147.768 342.819 149.5 342.819Z" fill="#290272" fill-opacity="0.2"/>
<path d="M187.136 342.297C188.58 342.297 189.75 341.127 189.75 339.684C189.75 338.241 188.58 337.071 187.136 337.071C185.693 337.071 184.523 338.241 184.523 339.684C184.523 341.127 185.693 342.297 187.136 342.297Z" stroke="#290272" stroke-opacity="0.4"/>
<path d="M222.682 342.819C224.414 342.819 225.818 341.415 225.818 339.684C225.818 337.952 224.414 336.548 222.682 336.548C220.95 336.548 219.545 337.952 219.545 339.684C219.545 341.415 220.95 342.819 222.682 342.819Z" fill="#290272" fill-opacity="0.2"/>
<path d="M260.318 342.297C261.762 342.297 262.932 341.127 262.932 339.684C262.932 338.241 261.762 337.071 260.318 337.071C258.875 337.071 257.704 338.241 257.704 339.684C257.704 341.127 258.875 342.297 260.318 342.297Z" stroke="#290272" stroke-opacity="0.4"/>
<path d="M295.864 342.819C297.596 342.819 299 341.415 299 339.684C299 337.952 297.596 336.548 295.864 336.548C294.131 336.548 292.727 337.952 292.727 339.684C292.727 341.415 294.131 342.819 295.864 342.819Z" fill="#290272" fill-opacity="0.2"/>
<path d="M333.5 342.297C334.943 342.297 336.114 341.127 336.114 339.684C336.114 338.241 334.943 337.071 333.5 337.071C332.057 337.071 330.886 338.241 330.886 339.684C330.886 341.127 332.057 342.297 333.5 342.297Z" stroke="#290272" stroke-opacity="0.4"/>
<path d="M369.045 342.819C370.778 342.819 372.182 341.415 372.182 339.684C372.182 337.952 370.778 336.548 369.045 336.548C367.313 336.548 365.909 337.952 365.909 339.684C365.909 341.415 367.313 342.819 369.045 342.819Z" fill="#290272" fill-opacity="0.2"/>
<path d="M406.682 342.297C408.125 342.297 409.295 341.127 409.295 339.684C409.295 338.241 408.125 337.071 406.682 337.071C405.238 337.071 404.068 338.241 404.068 339.684C404.068 341.127 405.238 342.297 406.682 342.297Z" stroke="#290272" stroke-opacity="0.4"/>
<path d="M442.227 342.819C443.959 342.819 445.364 341.415 445.364 339.684C445.364 337.952 443.959 336.548 442.227 336.548C440.495 336.548 439.091 337.952 439.091 339.684C439.091 341.415 440.495 342.819 442.227 342.819Z" fill="#290272" fill-opacity="0.2"/>
<path d="M479.864 342.297C481.307 342.297 482.477 341.127 482.477 339.684C482.477 338.241 481.307 337.071 479.864 337.071C478.42 337.071 477.25 338.241 477.25 339.684C477.25 341.127 478.42 342.297 479.864 342.297Z" stroke="#290272" stroke-opacity="0.4"/>
<path d="M515.409 342.819C517.141 342.819 518.545 341.415 518.545 339.684C518.545 337.952 517.141 336.548 515.409 336.548C513.677 336.548 512.273 337.952 512.273 339.684C512.273 341.415 513.677 342.819 515.409 342.819Z" fill="#290272" fill-opacity="0.2"/>
<path d="M553.045 342.297C554.489 342.297 555.659 341.127 555.659 339.684C555.659 338.241 554.489 337.071 553.045 337.071C551.602 337.071 550.432 338.241 550.432 339.684C550.432 341.127 551.602 342.297 553.045 342.297Z" stroke="#290272" stroke-opacity="0.4"/>
<path d="M588.591 342.819C590.323 342.819 591.727 341.415 591.727 339.684C591.727 337.952 590.323 336.548 588.591 336.548C586.859 336.548 585.455 337.952 585.455 339.684C585.455 341.415 586.859 342.819 588.591 342.819Z" fill="#290272" fill-opacity="0.2"/>
<path d="M626.227 342.297C627.671 342.297 628.841 341.127 628.841 339.684C628.841 338.241 627.671 337.071 626.227 337.071C624.784 337.071 623.614 338.241 623.614 339.684C623.614 341.127 624.784 342.297 626.227 342.297Z" stroke="#290272" stroke-opacity="0.4"/>
<path d="M661.773 342.819C663.505 342.819 664.909 341.415 664.909 339.684C664.909 337.952 663.505 336.548 661.773 336.548C660.041 336.548 658.636 337.952 658.636 339.684C658.636 341.415 660.041 342.819 661.773 342.819Z" fill="#290272" fill-opacity="0.2"/>
<path d="M699.409 342.297C700.853 342.297 702.023 341.127 702.023 339.684C702.023 338.241 700.853 337.071 699.409 337.071C697.966 337.071 696.795 338.241 696.795 339.684C696.795 341.127 697.966 342.297 699.409 342.297Z" stroke="#290272" stroke-opacity="0.4"/>
</svg>
