<svg width="27" height="27" viewBox="0 0 27 27" fill="none" xmlns="http://www.w3.org/2000/svg">
<path d="M21.9375 13.9944V11.8125H20.25V14.3438C20.25 14.5675 20.339 14.7821 20.4972 14.9403L22.7812 17.2243V18.5625H4.21875V17.2243L6.50278 14.9403C6.66103 14.7821 6.74995 14.5675 6.75 14.3438V10.9688C6.74765 9.78311 7.05822 8.61784 7.65035 7.59064C8.24249 6.56345 9.0952 5.7107 10.1224 5.11853C11.1496 4.52636 12.3148 4.21575 13.5005 4.21806C14.6861 4.22037 15.8501 4.53552 16.875 5.13169V3.24591C16.0718 2.89028 15.2176 2.66362 14.3438 2.57428V0.84375H12.6562V2.57344C10.576 2.78516 8.64824 3.76069 7.24559 5.31139C5.84295 6.86209 5.06512 8.8778 5.0625 10.9688V13.9944L2.77847 16.2785C2.62022 16.4367 2.5313 16.6512 2.53125 16.875V19.4062C2.53125 19.63 2.62014 19.8446 2.77838 20.0029C2.93661 20.1611 3.15122 20.25 3.375 20.25H9.28125V21.0938C9.28125 22.2126 9.72572 23.2857 10.5169 24.0769C11.3081 24.868 12.3811 25.3125 13.5 25.3125C14.6189 25.3125 15.6919 24.868 16.4831 24.0769C17.2743 23.2857 17.7188 22.2126 17.7188 21.0938V20.25H23.625C23.8488 20.25 24.0634 20.1611 24.2216 20.0029C24.3799 19.8446 24.4688 19.63 24.4688 19.4062V16.875C24.4687 16.6512 24.3798 16.4367 24.2215 16.2785L21.9375 13.9944ZM16.0312 21.0938C16.0312 21.7651 15.7646 22.4089 15.2899 22.8836C14.8152 23.3583 14.1713 23.625 13.5 23.625C12.8287 23.625 12.1848 23.3583 11.7101 22.8836C11.2354 22.4089 10.9688 21.7651 10.9688 21.0938V20.25H16.0312V21.0938Z" fill="#9DA6AF"/>
<path d="M21.9375 10.125C23.8015 10.125 25.3125 8.61396 25.3125 6.75C25.3125 4.88604 23.8015 3.375 21.9375 3.375C20.0735 3.375 18.5625 4.88604 18.5625 6.75C18.5625 8.61396 20.0735 10.125 21.9375 10.125Z" fill="#ED342B"/>
</svg>
