<svg width="23" height="23" viewBox="0 0 23 23" fill="none" xmlns="http://www.w3.org/2000/svg">
<path fill-rule="evenodd" clip-rule="evenodd" d="M11.4998 0.041748C5.17171 0.041748 0.0415039 5.17196 0.0415039 11.5001C0.0415039 17.8282 5.17171 22.9584 11.4998 22.9584C17.828 22.9584 22.9582 17.8282 22.9582 11.5001C22.9582 5.17196 17.828 0.041748 11.4998 0.041748ZM16.4665 9.56258C16.558 9.45804 16.6276 9.33627 16.6713 9.20442C16.715 9.07258 16.7319 8.93333 16.721 8.79486C16.71 8.65639 16.6715 8.5215 16.6077 8.39813C16.5439 8.27476 16.4561 8.1654 16.3494 8.07648C16.2427 7.98756 16.1193 7.92088 15.9864 7.88036C15.8535 7.83983 15.7139 7.82629 15.5758 7.84053C15.4376 7.85476 15.3037 7.89648 15.1819 7.96324C15.0601 8.03 14.9528 8.12044 14.8665 8.22925L10.3873 13.6032L8.06963 11.2845C7.87317 11.0947 7.61004 10.9897 7.33692 10.9921C7.0638 10.9945 6.80254 11.104 6.6094 11.2971C6.41627 11.4903 6.30672 11.7515 6.30434 12.0247C6.30197 12.2978 6.40696 12.5609 6.59671 12.7574L9.72171 15.8824C9.82406 15.9847 9.9466 16.0645 10.0815 16.1168C10.2164 16.1691 10.3608 16.1927 10.5053 16.1862C10.6499 16.1796 10.7915 16.143 10.9211 16.0787C11.0507 16.0144 11.1655 15.9237 11.2582 15.8126L16.4665 9.56258Z" fill="#40AD93"/>
</svg>
