<svg width="163" height="36" viewBox="0 0 163 36" fill="none" xmlns="http://www.w3.org/2000/svg">
<path d="M121.202 17.9386V15.4257H118.689V17.9386H121.202Z" fill="#ED342B"/>
<path d="M118.681 6.66336V12.9458C117.234 12.9458 116.091 14.1261 116.091 15.5349V17.8194C116.091 19.2663 117.234 20.4085 118.681 20.4085V26.6909C113.807 26.6909 109.847 22.7311 109.847 17.8575V15.4587C109.847 10.5851 113.807 6.62528 118.681 6.66336Z" fill="#ED342B"/>
<path d="M121.232 6.66319V12.9456C122.717 12.9456 123.935 14.164 123.935 15.6489V20.4464H121.27V26.7288H130.141V14.3544C130.141 10.09 126.676 6.62512 122.412 6.62512H121.232V6.66319Z" fill="#ED342B"/>
<path d="M17.6669 22.6167H9.13805L8.79538 23.6828C8.26233 25.3581 6.73932 26.5003 4.98786 26.5003H0L10.0519 0H16.6769L26.7288 26.5003H21.741C19.9895 26.5003 18.4284 25.3581 17.9334 23.6828L17.6669 22.6167ZM15.9916 17.2862L13.3644 8.90961L10.7372 17.2862H15.9916Z" fill="#03435F"/>
<path d="M49.6501 16.6389C49.6501 24.2159 44.0149 26.7288 40.8547 26.7288C38.1513 26.7288 36.8187 25.5104 36.3618 24.9012V35.7907H32.8208C30.9171 35.7907 29.356 34.2297 29.356 32.3259V6.77741H36.3618V8.4908C36.7045 8.14812 38.3798 6.58704 40.9689 6.58704C44.053 6.58704 49.6501 9.25231 49.6501 16.6389ZM42.8727 16.6389C42.8727 13.4406 41.1974 12.1841 39.3317 12.1841C37.3898 12.1841 36.0572 13.7452 36.0572 16.6389C36.0572 19.723 37.3898 21.1318 39.3317 21.1318C41.1974 21.1318 42.8727 19.8372 42.8727 16.6389Z" fill="#03435F"/>
<path d="M72.7238 16.6389C72.7238 24.2159 67.0887 26.7288 63.9284 26.7288C61.2251 26.7288 59.8924 25.5104 59.4355 24.9012V35.7907H55.8945C53.9908 35.7907 52.4297 34.2297 52.4297 32.3259V6.77741H59.4355V8.4908C59.7782 8.14812 61.4535 6.58704 64.0426 6.58704C67.0886 6.58704 72.7238 9.25231 72.7238 16.6389ZM65.9464 16.6389C65.9464 13.4406 64.2711 12.1841 62.4054 12.1841C60.4636 12.1841 59.1309 13.7452 59.1309 16.6389C59.1309 19.723 60.4636 21.1318 62.4054 21.1318C64.2711 21.1318 65.9464 19.8372 65.9464 16.6389Z" fill="#03435F"/>
<path d="M107.144 15.2301V26.4623H100.138V15.3443C100.138 13.2502 98.9194 12.3364 97.6629 12.3364C95.4926 12.3364 94.7692 14.3544 94.7692 14.7351V26.4623H87.7634V15.3443C87.7634 13.2502 86.5069 12.3364 85.2885 12.3364C83.1943 12.3364 82.3948 14.0879 82.3948 15.192V26.4623H75.3889V6.77741H82.3948V10.2423C83.004 8.90964 84.6412 6.58704 88.0299 6.58704C90.7713 6.58704 92.9797 7.69122 94.0838 10.4707C94.9596 8.6431 97.3583 6.58704 100.29 6.58704C104.098 6.58704 107.144 8.98578 107.144 15.2301Z" fill="#03435F"/>
<path d="M147.008 6.73933V12.8694C146.133 12.8314 145.942 12.8314 145.714 12.8314C141.716 12.8314 140.155 14.2782 139.812 16.4866V26.4623H136.842C134.634 26.4623 132.806 24.6728 132.806 22.4263V6.73933H139.812V10.7372C140.345 8.18618 142.021 6.54895 145.181 6.54895C145.6 6.58703 146.133 6.58703 147.008 6.73933Z" fill="#03435F"/>
<path d="M163 21.0937V26.0435C162.162 26.3862 160.754 26.6907 159.154 26.6907C155.042 26.6907 151.844 25.6246 151.844 19.9134V12.1841H148.493V6.77741H151.844V1.86572H158.85V6.77741H162.924V12.1841H158.85V19.1138C158.85 20.4083 159.383 21.3222 161.096 21.3222C161.515 21.3222 162.162 21.246 163 21.0937Z" fill="#03435F"/>
</svg>
